<svg xmlns="http://www.w3.org/2000/svg" viewBox="0 0 64 64" fill="none">
  <!-- Background circle -->
  <circle cx="32" cy="32" r="32" fill="#10b981"/>
  
  <!-- House base -->
  <rect x="18" y="32" width="28" height="20" rx="2" fill="white"/>
  
  <!-- House roof -->
  <path d="M16 30L32 18L48 30" stroke="white" stroke-width="3" stroke-linecap="round" stroke-linejoin="round"/>
  
  <!-- Door -->
  <rect x="28" y="40" width="8" height="12" rx="1" fill="#10b981"/>
  
  <!-- Window -->
  <rect x="22" y="36" width="6" height="6" rx="1" fill="#10b981" opacity="0.8"/>
  <rect x="36" y="36" width="6" height="6" rx="1" fill="#10b981" opacity="0.8"/>
  
  <!-- Leaf (top right) -->
  <path d="M44 24C44 24 48 20 52 22C56 24 54 28 52 30C50 32 46 30 44 28C42 26 44 24 44 24Z" fill="#34d399"/>
  <path d="M46 26L48 28" stroke="#10b981" stroke-width="1.5" stroke-linecap="round"/>
  
  <!-- Small leaf accent -->
  <path d="M48 20C48 20 50 18 52 19C54 20 53 22 52 23C51 24 49 23 48 22C47 21 48 20 48 20Z" fill="#6ee7b7"/>
</svg>
